PathFileType	4	(X/Y/Z)	D:\Share\Shared_Data\Ergonomics\Sit To Stand Pertubation\S3\Unperturbed.trc
DataRate	CameraRate	NumFrames	NumMarkers	Units	OrigDataRate	OrigDataStartFrame	OrigNumFrames	
100	100	14	18	m	100	5745	251
Frame#	Time	R_Thigh			R_ASIS			R_Pelvis			V_Sacral			L_Pelvis			L_ASIS			Clavical			R_Acromium			L_Acromium			Sternum			Torso			R_Thigh_Med			R_Thigh_Lat			R_Shank_Med			R_Shank_Lat			R_Shank			R_Heel			R_Toe			
		X1	Y1	Z1	X2	Y2	Z2	X3	Y3	Z3	X4	Y4	Z4	X5	Y5	Z5	X6	Y6	Z6	X7	Y7	Z7	X8	Y8	Z8	X9	Y9	Z9	X10	Y10	Z10	X11	Y11	Z11	X12	Y12	Z12	X13	Y13	Z13	X14	Y14	Z14	X15	Y15	Z15	X16	Y16	Z16	X17	Y17	Z17	X18	Y18	Z18	

5745	57.44	0.14345049	0.58176428	0.1200508	-0.013279366	0.64529956	0.1506761	-0.12458836	0.63637854	0.20427019	-0.23112183	0.63868811	0.01694644	-0.12001846	0.65424158	-0.19050227	-0.011565043	0.64815204	-0.12868965	0.0062337441	1.0262731	0.0048378057	-0.039871788	1.0905278	0.1781064	-0.022644941	1.0895696	-0.15689835	0.019204981	0.94978998	0.011784296	0.010910832	1.0132106	-0.056607025	0.32821832	0.47076114	0.087846939	0.30940421	0.44821201	0.20361804	0.25891348	0.10853114	0.095215981	0.23527692	0.096201462	0.17452271	0.25325153	0.2715845	0.20276077	0.18068491	0.05050729	0.11885351	0.39737555	0.056834976	0.13987172
5746	57.45	0.14381894	0.58157648	0.11973767	-0.011668194	0.64457336	0.15053728	-0.12304394	0.63687988	0.2043116	-0.22965559	0.64013751	0.016976923	-0.11840812	0.65471234	-0.19033908	-0.010212393	0.64753668	-0.12858917	0.012614001	1.0253153	0.0048905973	-0.032516682	1.09	0.1780681	-0.015766058	1.0886179	-0.15681236	0.024750139	0.94851538	0.01172836	0.017087061	1.0120383	-0.056661236	0.32851797	0.47096225	0.08802597	0.30969641	0.44815558	0.20352403	0.25890927	0.10851998	0.095210228	0.23525528	0.096154045	0.17451779	0.25337648	0.27156964	0.20273145	0.18068095	0.050479374	0.11885781	0.39736859	0.056829617	0.13987415
5747	57.46	0.1441971	0.58138489	0.11940322	-0.010058168	0.64379388	0.1503779	-0.12144489	0.63738153	0.20435033	-0.22813731	0.64162653	0.017013727	-0.11675558	0.65518414	-0.19014545	-0.0087895689	0.64691528	-0.12859271	0.019185318	1.0243041	0.0050102901	-0.024904821	1.0893716	0.17802043	-0.00864046	1.0874951	-0.15663766	0.030484858	0.94713916	0.011672081	0.023474499	1.0107587	-0.056714211	0.32882831	0.47121704	0.088238297	0.30999698	0.44810248	0.20340979	0.25890347	0.1085078	0.095204468	0.23521866	0.096184326	0.17451483	0.25351036	0.27155557	0.20269571	0.1806757	0.05044709	0.11886036	0.39736035	0.056825554	0.13987758
5748	57.47	0.1445842	0.58119141	0.11904825	-0.0084191809	0.64296997	0.15022023	-0.11979443	0.63788477	0.20438589	-0.22656326	0.64315997	0.017055784	-0.11506678	0.65566107	-0.18994058	-0.0072922325	0.64626978	-0.12867563	0.025951315	1.0232415	0.0052123289	-0.017030943	1.0886306	0.1779604	-0.0012667679	1.0861964	-0.15633836	0.036406437	0.94565277	0.01161182	0.030079033	1.009366	-0.056764172	0.32913794	0.47145041	0.088410828	0.31030243	0.44805237	0.2032748	0.25889578	0.10849417	0.095198723	0.23516533	0.096283775	0.17451302	0.25365028	0.27154254	0.20265364	0.18066872	0.050410561	0.11886076	0.39735101	0.056822941	0.13988188
5749	57.48	0.14497867	0.58099622	0.11867231	-0.0067307262	0.64210724	0.15007851	-0.11809726	0.63839093	0.20441602	-0.22492661	0.64474298	0.017101152	-0.11334451	0.65614728	-0.18974173	-0.005716188	0.64558606	-0.12881502	0.032914692	1.0221181	0.0054913554	-0.0088917418	1.0877678	0.1778842	0.0063545408	1.0847242	-0.15588412	0.042504864	0.94404663	0.011541909	0.036905094	1.0078564	-0.056807858	0.32943265	0.47153915	0.088429382	0.31060931	0.4480036	0.20311998	0.25888559	0.10847845	0.095192596	0.23509254	0.096441109	0.17451213	0.25379271	0.27153073	0.20260507	0.18065991	0.050369408	0.11885859	0.3973407	0.056821697	0.13988672
5750	57.49	0.14537753	0.58079858	0.11827431	-0.0049826784	0.64120795	0.1499585	-0.11635841	0.63890198	0.20443756	-0.2232175	0.64637994	0.017146389	-0.11158752	0.65664648	-0.18955997	-0.0040611801	0.6448559	-0.12899432	0.040080334	1.0209074	0.0058143067	-0.00048543546	1.0867766	0.17778917	0.014222071	1.0830944	-0.15526457	0.048763069	0.94231091	0.011455551	0.043955723	1.0062267	-0.05684082	0.32970184	0.47137393	0.088197731	0.31091431	0.44795319	0.20294772	0.25887177	0.10845985	0.095185234	0.23499991	0.096636711	0.17451222	0.25393373	0.27151981	0.2025495	0.18064919	0.050323067	0.11885365	0.39732916	0.056821587	0.13989116
5751	57.5	0.14577705	0.58059741	0.1178533	-0.0031670582	0.64027313	0.14986324	-0.11458067	0.63942017	0.20444724	-0.22142401	0.64807568	0.01718623	-0.10979063	0.65716077	-0.18939981	-0.0023281908	0.64407629	-0.12920366	0.047455704	1.0195726	0.0061299973	0.0081885471	1.0856532	0.17767461	0.022334949	1.0813578	-0.15450919	0.055162659	0.94043561	0.01134656	0.051231094	1.0044752	-0.056858433	0.32994647	0.47095166	0.087719933	0.31121475	0.44789844	0.20276173	0.25885284	0.10843725	0.095175652	0.23489105	0.096843956	0.17451305	0.25406947	0.27150882	0.20248636	0.180636	0.050271305	0.11884636	0.39731619	0.056822308	0.1398934
5752	57.51	0.1461739	0.58039172	0.11740869	-0.0012753693	0.63930475	0.14979532	-0.11276266	0.63994928	0.20444218	-0.21953375	0.64983508	0.017214338	-0.10794514	0.65769031	-0.18926044	-0.00051559722	0.64324738	-0.12943903	0.055046413	1.0180814	0.0063933797	0.017129305	1.0843959	0.17754088	0.030694826	1.0796068	-0.153696	0.06169384	0.93841107	0.011212111	0.058726505	1.0026009	-0.056856369	0.33017807	0.47037732	0.0870998	0.31150848	0.44783722	0.20256624	0.25882724	0.10840959	0.095163025	0.2347697	0.097045769	0.17451353	0.25419647	0.27149628	0.20241508	0.1806192	0.050214481	0.11883806	0.39730139	0.056823555	0.13989137
5753	57.52	0.14656602	0.58018066	0.11694046	0.00069802344	0.63830426	0.14975574	-0.1108987	0.64049512	0.20442047	-0.21753537	0.65166327	0.017224501	-0.10603906	0.6582345	-0.18913876	0.0013833836	0.64237103	-0.12970107	0.06285149	1.0164171	0.0065821309	0.026333626	1.0830054	0.17738863	0.039305058	1.0779376	-0.15291161	0.068362045	0.93622961	0.011054502	0.066430367	1.0006032	-0.056831181	0.330409	0.46977454	0.086457001	0.31179388	0.44776813	0.20236514	0.25879385	0.10837619	0.095146774	0.23463603	0.09724408	0.17451201	0.25431177	0.27148056	0.2023353	0.18059691	0.050154327	0.11883201	0.39728427	0.056825077	0.13988406
5754	57.53	0.14695264	0.57996332	0.11644939	0.0027523921	0.63727173	0.14974261	-0.10897969	0.64106555	0.20438155	-0.21541785	0.65356433	0.017211	-0.10405629	0.65879181	-0.18903302	0.0033810375	0.64144995	-0.12999335	0.070862663	1.0145765	0.0066953087	0.03579565	1.0814836	0.17721915	0.048165779	1.0763892	-0.15218806	0.075182793	0.93388556	0.010880515	0.074322433	0.99848315	-0.056781567	0.33064587	0.46922208	0.085867958	0.31206998	0.44769025	0.2021622	0.25875201	0.10833696	0.095126701	0.23449036	0.097444237	0.17450748	0.25441336	0.27146048	0.20224724	0.18056705	0.050095901	0.1188347	0.39726404	0.056826782	0.13987221
5755	57.54	0.14733514	0.5797395	0.11593764	0.0048790169	0.63620581	0.14975124	-0.10699481	0.6416687	0.20432547	-0.21316924	0.65554163	0.017168459	-0.10197607	0.6593606	-0.18894406	0.0054924989	0.64048639	-0.13031979	0.079067535	1.0125669	0.0067444706	0.045506889	1.0798331	0.17703461	0.057269119	1.0749203	-0.15150226	0.082169373	0.93137628	0.010700113	0.082372185	0.9962428	-0.056710476	0.3308912	0.46875223	0.085365242	0.31233682	0.44760336	0.20196138	0.25870215	0.10829266	0.095103096	0.23433572	0.097643646	0.17449979	0.25450069	0.27143494	0.2021523	0.18052769	0.050050034	0.11885728	0.39724014	0.056828747	0.1398573
5756	57.55	0.14771811	0.57951056	0.11540969	0.0070594735	0.6351037	0.14977425	-0.10493203	0.64231195	0.2042531	-0.21077614	0.65759631	0.017092375	-0.099773735	0.65993909	-0.18887614	0.0077315259	0.6394826	-0.13068149	0.087452827	1.0104	0.0067458801	0.055454964	1.0780562	0.17683589	0.066598244	1.0734369	-0.15083688	0.089326431	0.92870538	0.010526758	0.090537888	0.99388422	-0.056627064	0.33114676	0.46836801	0.084955177	0.31259641	0.44750818	0.20176749	0.25864624	0.10824492	0.095076721	0.23417833	0.097833191	0.17448853	0.25457552	0.27140292	0.2020536	0.18047778	0.050035046	0.11891624	0.39721222	0.056831123	0.13984071
5757	57.56	0.1481105	0.57928094	0.11487332	0.0092637739	0.63396088	0.14980215	-0.10277719	0.64300159	0.20416711	-0.20822417	0.65972748	0.016980213	-0.097422867	0.660526	-0.18883768	0.010107224	0.6384397	-0.13107578	0.096005898	1.0080897	0.0067157774	0.065622437	1.076151	0.17662215	0.076130478	1.0718369	-0.15021092	0.096652466	0.92589008	0.010378357	0.098768753	0.99140881	-0.056547218	0.33141547	0.46805606	0.084632118	0.31285309	0.44740607	0.20158682	0.25858734	0.10819606	0.095048607	0.23402744	0.097997581	0.17447249	0.25464236	0.27136334	0.20195621	0.18041745	0.050075935	0.11903206	0.39718045	0.056833981	0.13982339
5758	57.57	0.14852571	0.57905878	0.11433871	0.011451499	0.632771	0.14982449	-0.10051348	0.64374194	0.20407248	-0.20549843	0.66193219	0.016831984	-0.094897499	0.66111957	-0.18884067	0.012622623	0.63735693	-0.13149754	0.10471531	1.0056506	0.0066681314	0.075987968	1.0741157	0.17639302	0.085841614	1.0700471	-0.14965054	0.10414445	0.92296893	0.010277305	0.10701396	0.98881818	-0.056490013	0.33170157	0.46779681	0.084388298	0.31311365	0.44729834	0.20142775	0.25852905	0.1081486	0.095019974	0.23389139	0.098123741	0.17445	0.25470831	0.27131583	0.2018663	0.18034836	0.050200367	0.11922542	0.39714578	0.056837563	0.13980612
